<?xml version="1.0" standalone="no"?>
<!DOCTYPE svg PUBLIC "-//W3C//DTD SVG 20010904//EN"
 "http://www.w3.org/TR/2001/REC-SVG-20010904/DTD/svg10.dtd">
<svg version="1.0" xmlns="http://www.w3.org/2000/svg"
 width="700.000000pt" height="700.000000pt" viewBox="0 0 700.000000 700.000000"
 preserveAspectRatio="xMidYMid meet">
<metadata>
Created by potrace 1.14, written by Peter Selinger 2001-2017
</metadata>
<g transform="translate(0.000000,700.000000) scale(0.100000,-0.100000)"
fill="#000000" stroke="none">
<path d="M558 6990 c-138 -24 -255 -85 -359 -189 -85 -85 -136 -169 -171 -281
l-23 -75 0 -2945 0 -2945 23 -75 c35 -112 86 -196 171 -281 83 -83 165 -134
276 -171 l70 -23 2925 -3 c3273 -3 2994 -9 3160 70 69 33 101 57 171 127 70
70 94 102 127 171 79 166 73 -113 70 3160 l-3 2925 -23 70 c-37 111 -88 193
-171 276 -83 83 -165 134 -276 171 l-70 23 -2925 1 c-1609 1 -2946 -2 -2972
-6z m4295 -1755 c188 -49 338 -201 382 -386 77 -328 -173 -639 -514 -639 -98
0 -225 44 -307 106 l-30 23 -797 -402 -797 -402 0 -38 0 -38 798 -395 c775
-385 798 -395 822 -380 122 75 216 106 320 106 237 0 450 -169 505 -402 87
-371 -252 -710 -623 -623 -227 54 -402 268 -402 493 l0 53 -797 396 c-789 393
-796 396 -822 380 -63 -40 -170 -88 -220 -97 -320 -60 -621 187 -621 510 0
296 255 536 550 517 101 -6 181 -32 260 -85 l58 -39 794 401 793 401 7 76 c13
140 65 248 165 339 130 119 314 167 476 125z"/>
</g>
</svg>
